<svg xmlns="http://www.w3.org/2000/svg" viewBox="0 0 48 60" x="0px" y="0px"><path fill-rule="evenodd" d="M39,27 L33,27 L33,21 L27,21 L27,27 L21,27 L21,33 L27,33 L27,39 L21,39 L15,39 L15,33 L15,27 L9,27 L3,27 L3,21 L3,15 L3,9 L3,3 L9,3 L15,3 L21,3 L27,3 L27,9 L27,15 L33,15 L33,9 L39,9 L39,15 L45,15 L45,21 L45,27 L45,33 L39,33 L39,27 Z M9,9 L9,15 L9,21 L15,21 L21,21 L21,15 L21,9 L15,9 L9,9 Z M39,3 L45,3 L45,9 L39,9 L39,3 Z M27,27 L33,27 L33,33 L27,33 L27,27 Z M3,33 L9,33 L9,39 L3,39 L3,33 Z M9,39 L15,39 L15,45 L9,45 L9,39 Z M39,39 L45,39 L45,45 L39,45 L39,39 Z M27,39 L33,39 L33,45 L27,45 L27,39 Z M12,12 L18,12 L18,18 L12,18 L12,12 Z"/><text x="0" y="63" fill="#000000" font-size="5px" font-weight="bold" font-family="'Helvetica Neue', Helvetica, Arial-Unicode, Arial, Sans-serif">Created by Wesley Hwang</text><text x="0" y="68" fill="#000000" font-size="5px" font-weight="bold" font-family="'Helvetica Neue', Helvetica, Arial-Unicode, Arial, Sans-serif">from the Noun Project</text></svg>